# xmcd
# 
# Track frame offsets:
#     150
#     12387
#     23370
#     34056
#     46411
#     61540
#     74584
#     85256
#     95420
#     106593
#     120483
#     131283
#     145921
#     157265
#     170835
#     183476
#     195859
#     202906
#     210739
#     220975
#     232521
#     239892
# 
# Disc length: 3340
# 
# Revision: 2
# Processed by: cddbd v1.5.2PL0 Copyright (c) Steve Scherf et al.
# Submitted via: fre:ac v1.0.17
# 
DISCID=280d0a16
DTITLE=Various Artist - Classic Country CD 1
DYEAR=2007
DGENRE=Country
TTITLE0=Lynn Anderson - Stand By Your Man
TTITLE1=Merle Haggard - Silver Wings
TTITLE2=Billie Jo Spears - I'm So Lonesome I Could Cry
TTITLE3=Kenny Rogers - Ruben James
TTITLE4=Moe Bandy - Hank Williams You Wrote My Life
TTITLE5=T Grahm Brown - Brilliant Conversationalist
TTITLE6=Waylon Jennings - Sally Was A Good Old Girl
TTITLE7=Willie Nelson - Healing Hands Of Time
TTITLE8=Razzy Bailey - 9,999,999 Tears
TTITLE9=Moe Bandy - I Cheated Me Right Out Of You
TTITLE10=Tex Ritter - Green Grow The Lilacs
TTITLE11=Holly Dunn - Love Someone Like Me
TTITLE12=Patsy Cline - The Heart You Break May Be Yours
TTITLE13=Kenny Rogers - Shine On Ruby Mountain
TTITLE14=Lynn Anderson - I Fall To Pieces
TTITLE15=Porter Wagoner - A Satisfied Mind
TTITLE16=Faron Young - Going Steady
TTITLE17=Don Gibson - Blue Blue Day
TTITLE18=Billie Jo Spears - It Makes No Difference
TTITLE19=Kenny Rogers - Me And Bobby McGee
TTITLE20=Merle Haggard - I'm A Lonesome Fugitive
TTITLE21=Dolly Parton - It Wasn't God Who Made Honkey Tonk Angels
EXTD=YEAR: 2007
EXTT0=
EXTT1=
EXTT2=
EXTT3=
EXTT4=
EXTT5=
EXTT6=
EXTT7=
EXTT8=
EXTT9=
EXTT10=
EXTT11=
EXTT12=
EXTT13=
EXTT14=
EXTT15=
EXTT16=
EXTT17=
EXTT18=
EXTT19=
EXTT20=
EXTT21=
PLAYORDER=
